<svg xmlns="http://www.w3.org/2000/svg" xmlns:xlink="http://www.w3.org/1999/xlink" contentStyleType="text/css" data-diagram-type="SEQUENCE" height="425px" preserveAspectRatio="none" style="width:563px;height:425px;background:#FFFFFF;" version="1.1" viewBox="0 0 563 425" width="563px" zoomAndPan="magnify"><title>Sensor Data Flow</title><defs/><g><text fill="#000000" font-family="sans-serif" font-size="14" font-weight="bold" lengthAdjust="spacing" textLength="124.6943" x="217.7158" y="28.5352">Sensor Data Flow</text><g><title>User</title><rect fill="transparent" height="225.1738" width="8" x="19.1826" y="118.9766"/><line style="stroke:#181818;stroke-width:0.5;stroke-dasharray:5.0,5.0;" x1="23" x2="23" y1="118.9766" y2="344.1504"/></g><g><title>Web UI</title><rect fill="transparent" height="225.1738" width="8" x="124.1343" y="118.9766"/><line style="stroke:#181818;stroke-width:0.5;stroke-dasharray:5.0,5.0;" x1="127.7588" x2="127.7588" y1="118.9766" y2="344.1504"/></g><g><title>API Service</title><rect fill="transparent" height="225.1738" width="8" x="235.8716" y="118.9766"/><line style="stroke:#181818;stroke-width:0.5;stroke-dasharray:5.0,5.0;" x1="239.2754" x2="239.2754" y1="118.9766" y2="344.1504"/></g><g><title>MQTT Broker</title><rect fill="transparent" height="225.1738" width="8" x="341.0483" y="118.9766"/><line style="stroke:#181818;stroke-width:0.5;stroke-dasharray:5.0,5.0;" x1="344.4678" x2="344.4678" y1="118.9766" y2="344.1504"/></g><g><title>PostgreSQL</title><rect fill="transparent" height="225.1738" width="8" x="444.0537" y="118.9766"/><line style="stroke:#181818;stroke-width:0.5;stroke-dasharray:5.0,5.0;" x1="447.6289" x2="447.6289" y1="118.9766" y2="344.1504"/></g><g><title>Redis</title><rect fill="transparent" height="225.1738" width="8" x="523.8022" y="118.9766"/><line style="stroke:#181818;stroke-width:0.5;stroke-dasharray:5.0,5.0;" x1="527.4785" x2="527.4785" y1="118.9766" y2="344.1504"/></g><text fill="#000000" font-family="sans-serif" font-size="14" lengthAdjust="spacing" textLength="30.3652" x="5" y="116.0234">User</text><ellipse cx="23.1826" cy="50.9883" fill="#E2E2F0" rx="8" ry="8" style="stroke:#181818;stroke-width:0.5;"/><path d="M23.1826,58.9883 L23.1826,85.9883 M10.1826,66.9883 L36.1826,66.9883 M23.1826,85.9883 L10.1826,100.9883 M23.1826,85.9883 L36.1826,100.9883 " fill="transparent" style="stroke:#181818;stroke-width:0.5;"/><text fill="#000000" font-family="sans-serif" font-size="14" lengthAdjust="spacing" textLength="30.3652" x="5" y="356.6855">User</text><ellipse cx="23.1826" cy="368.1387" fill="#E2E2F0" rx="8" ry="8" style="stroke:#181818;stroke-width:0.5;"/><path d="M23.1826,376.1387 L23.1826,403.1387 M10.1826,384.1387 L36.1826,384.1387 M23.1826,403.1387 L10.1826,418.1387 M23.1826,403.1387 L36.1826,418.1387 " fill="transparent" style="stroke:#181818;stroke-width:0.5;"/><rect fill="#E2E2F0" height="30.4883" rx="2.5" ry="2.5" style="stroke:#181818;stroke-width:0.5;" width="60.751" x="97.7588" y="87.4883"/><text fill="#000000" font-family="sans-serif" font-size="14" lengthAdjust="spacing" textLength="46.751" x="104.7588" y="108.0234">Web UI</text><rect fill="#E2E2F0" height="30.4883" rx="2.5" ry="2.5" style="stroke:#181818;stroke-width:0.5;" width="60.751" x="97.7588" y="343.1504"/><text fill="#000000" font-family="sans-serif" font-size="14" lengthAdjust="spacing" textLength="46.751" x="104.7588" y="363.6855">Web UI</text><rect fill="#E2E2F0" height="30.4883" rx="2.5" ry="2.5" style="stroke:#181818;stroke-width:0.5;" width="87.1924" x="196.2754" y="87.4883"/><text fill="#000000" font-family="sans-serif" font-size="14" lengthAdjust="spacing" textLength="73.1924" x="203.2754" y="108.0234">API Service</text><rect fill="#E2E2F0" height="30.4883" rx="2.5" ry="2.5" style="stroke:#181818;stroke-width:0.5;" width="87.1924" x="196.2754" y="343.1504"/><text fill="#000000" font-family="sans-serif" font-size="14" lengthAdjust="spacing" textLength="73.1924" x="203.2754" y="363.6855">API Service</text><rect fill="#E2E2F0" height="30.4883" rx="2.5" ry="2.5" style="stroke:#181818;stroke-width:0.5;" width="103.1611" x="293.4678" y="87.4883"/><text fill="#000000" font-family="sans-serif" font-size="14" lengthAdjust="spacing" textLength="89.1611" x="300.4678" y="108.0234">MQTT Broker</text><rect fill="#E2E2F0" height="30.4883" rx="2.5" ry="2.5" style="stroke:#181818;stroke-width:0.5;" width="103.1611" x="293.4678" y="343.1504"/><text fill="#000000" font-family="sans-serif" font-size="14" lengthAdjust="spacing" textLength="89.1611" x="300.4678" y="363.6855">MQTT Broker</text><text fill="#000000" font-family="sans-serif" font-size="14" lengthAdjust="spacing" textLength="76.8496" x="406.6289" y="116.0234">PostgreSQL</text><path d="M430.0537,66.4883 C430.0537,56.4883 448.0537,56.4883 448.0537,56.4883 C448.0537,56.4883 466.0537,56.4883 466.0537,66.4883 L466.0537,92.4883 C466.0537,102.4883 448.0537,102.4883 448.0537,102.4883 C448.0537,102.4883 430.0537,102.4883 430.0537,92.4883 L430.0537,66.4883 " fill="#E2E2F0" style="stroke:#181818;stroke-width:1.5;"/><path d="M430.0537,66.4883 C430.0537,76.4883 448.0537,76.4883 448.0537,76.4883 C448.0537,76.4883 466.0537,76.4883 466.0537,66.4883 " fill="transparent" style="stroke:#181818;stroke-width:1.5;"/><text fill="#000000" font-family="sans-serif" font-size="14" lengthAdjust="spacing" textLength="76.8496" x="406.6289" y="356.6855">PostgreSQL</text><path d="M430.0537,369.6387 C430.0537,359.6387 448.0537,359.6387 448.0537,359.6387 C448.0537,359.6387 466.0537,359.6387 466.0537,369.6387 L466.0537,395.6387 C466.0537,405.6387 448.0537,405.6387 448.0537,405.6387 C448.0537,405.6387 430.0537,405.6387 430.0537,395.6387 L430.0537,369.6387 " fill="#E2E2F0" style="stroke:#181818;stroke-width:1.5;"/><path d="M430.0537,369.6387 C430.0537,379.6387 448.0537,379.6387 448.0537,379.6387 C448.0537,379.6387 466.0537,379.6387 466.0537,369.6387 " fill="transparent" style="stroke:#181818;stroke-width:1.5;"/><path d="M504.4785,92.4883 L551.126,92.4883 C556.126,92.4883 556.126,105.7324 556.126,105.7324 C556.126,105.7324 556.126,118.9766 551.126,118.9766 L504.4785,118.9766 C499.4785,118.9766 499.4785,105.7324 499.4785,105.7324 C499.4785,105.7324 499.4785,92.4883 504.4785,92.4883 " fill="#E2E2F0" style="stroke:#181818;stroke-width:0.5;"/><path d="M551.126,92.4883 C546.126,92.4883 546.126,105.7324 546.126,105.7324 C546.126,118.9766 551.126,118.9766 551.126,118.9766 " fill="transparent" style="stroke:#181818;stroke-width:0.5;"/><text fill="#000000" font-family="sans-serif" font-size="14" lengthAdjust="spacing" textLength="36.6475" x="504.4785" y="111.0234">Redis</text><path d="M504.4785,343.1504 L551.126,343.1504 C556.126,343.1504 556.126,356.3945 556.126,356.3945 C556.126,356.3945 556.126,369.6387 551.126,369.6387 L504.4785,369.6387 C499.4785,369.6387 499.4785,356.3945 499.4785,356.3945 C499.4785,356.3945 499.4785,343.1504 504.4785,343.1504 " fill="#E2E2F0" style="stroke:#181818;stroke-width:0.5;"/><path d="M551.126,343.1504 C546.126,343.1504 546.126,356.3945 546.126,356.3945 C546.126,369.6387 551.126,369.6387 551.126,369.6387 " fill="transparent" style="stroke:#181818;stroke-width:0.5;"/><text fill="#000000" font-family="sans-serif" font-size="14" lengthAdjust="spacing" textLength="36.6475" x="504.4785" y="361.6855">Redis</text><polygon fill="#181818" points="116.1343,146.2871,126.1343,150.2871,116.1343,154.2871,120.1343,150.2871" style="stroke:#181818;stroke-width:1;"/><line style="stroke:#181818;stroke-width:1;" x1="23.1826" x2="122.1343" y1="150.2871" y2="150.2871"/><text fill="#000000" font-family="sans-serif" font-size="13" lengthAdjust="spacing" textLength="54.5645" x="30.1826" y="145.5449">Interacts</text><polygon fill="#181818" points="227.8716,175.5977,237.8716,179.5977,227.8716,183.5977,231.8716,179.5977" style="stroke:#181818;stroke-width:1;"/><line style="stroke:#181818;stroke-width:1;" x1="128.1343" x2="233.8716" y1="179.5977" y2="179.5977"/><text fill="#000000" font-family="sans-serif" font-size="13" lengthAdjust="spacing" textLength="87.7373" x="135.1343" y="174.8555">HTTP Request</text><polygon fill="#181818" points="436.0537,204.9082,446.0537,208.9082,436.0537,212.9082,440.0537,208.9082" style="stroke:#181818;stroke-width:1;"/><line style="stroke:#181818;stroke-width:1;" x1="239.8716" x2="442.0537" y1="208.9082" y2="208.9082"/><text fill="#000000" font-family="sans-serif" font-size="13" lengthAdjust="spacing" textLength="37.521" x="246.8716" y="204.166">Query</text><polygon fill="#181818" points="515.8022,234.2188,525.8022,238.2188,515.8022,242.2188,519.8022,238.2188" style="stroke:#181818;stroke-width:1;"/><line style="stroke:#181818;stroke-width:1;" x1="239.8716" x2="521.8022" y1="238.2188" y2="238.2188"/><text fill="#000000" font-family="sans-serif" font-size="13" lengthAdjust="spacing" textLength="38.1431" x="246.8716" y="233.4766">Cache</text><polygon fill="#181818" points="250.8716,263.5293,240.8716,267.5293,250.8716,271.5293,246.8716,267.5293" style="stroke:#181818;stroke-width:1;"/><line style="stroke:#181818;stroke-width:1;" x1="244.8716" x2="344.0483" y1="267.5293" y2="267.5293"/><text fill="#000000" font-family="sans-serif" font-size="13" lengthAdjust="spacing" textLength="62.8164" x="256.8716" y="262.7871">Telemetry</text><polygon fill="#181818" points="139.1343,292.8398,129.1343,296.8398,139.1343,300.8398,135.1343,296.8398" style="stroke:#181818;stroke-width:1;"/><line style="stroke:#181818;stroke-width:1;" x1="133.1343" x2="238.8716" y1="296.8398" y2="296.8398"/><text fill="#000000" font-family="sans-serif" font-size="13" lengthAdjust="spacing" textLength="83.5415" x="145.1343" y="292.0977">Server Events</text><polygon fill="#181818" points="34.1826,322.1504,24.1826,326.1504,34.1826,330.1504,30.1826,326.1504" style="stroke:#181818;stroke-width:1;"/><line style="stroke:#181818;stroke-width:1;" x1="28.1826" x2="127.1343" y1="326.1504" y2="326.1504"/><text fill="#000000" font-family="sans-serif" font-size="13" lengthAdjust="spacing" textLength="80.9517" x="40.1826" y="321.4082">Visualization</text><!--SRC=[NO_1JiCm44Jl-nMhtFi3FI011H49fAHnuRn9Lc2HskbwNGHVpzeIL72ptuncPjNhmjWC758Kt94ItY_nem6WIOqS4Wki9Eedlr9GR5vun4FR82NC_gzqtRKui9pzn5MdzP_XgNSERoI-irJ3yQGAivMEb6n55vE-2W_zOrNd4KwPimbxddsgJCeBeCp2pPKjm2ssGLbiRWBx6hHQem_ETRXdIqWA1PaoZoRqcUNpXzGyWxSqlJ6KFPS4nmiVMI_csbOEjFAxCuVVnZfdYyy-PLhy5wcFuHi0]--></g></svg>